<svg width="15" height="18" viewBox="0 0 15 18" fill="none" xmlns="http://www.w3.org/2000/svg">
<path d="M1 4.51985H2.5H14.5" stroke="white" stroke-linecap="round" stroke-linejoin="round"/>
<path d="M4.75 4.51986V2.99549C4.75 2.5912 4.90804 2.20347 5.18934 1.9176C5.47064 1.63172 5.85218 1.47112 6.25 1.47112H9.25C9.64782 1.47112 10.0294 1.63172 10.3107 1.9176C10.592 2.20347 10.75 2.5912 10.75 2.99549V4.51986M13 4.51986V15.1904C13 15.5947 12.842 15.9824 12.5607 16.2683C12.2794 16.5542 11.8978 16.7148 11.5 16.7148H4C3.60218 16.7148 3.22064 16.5542 2.93934 16.2683C2.65804 15.9824 2.5 15.5947 2.5 15.1904V4.51986H13Z" stroke="white" stroke-linecap="round" stroke-linejoin="round"/>
<path d="M6.25 8.33078V12.9039" stroke="white" stroke-linecap="round" stroke-linejoin="round"/>
<path d="M9.25 8.33078V12.9039" stroke="white" stroke-linecap="round" stroke-linejoin="round"/>
</svg>
