<svg width="18" height="19" viewBox="0 0 18 19" fill="none" xmlns="http://www.w3.org/2000/svg">
<path d="M14.3818 11.8183C14.285 12.0413 14.2561 12.2885 14.2989 12.5283C14.3417 12.7681 14.4542 12.9893 14.6218 13.1635L14.6655 13.2078C14.8007 13.3451 14.908 13.5081 14.9812 13.6876C15.0544 13.867 15.0921 14.0594 15.0921 14.2536C15.0921 14.4479 15.0544 14.6402 14.9812 14.8197C14.908 14.9991 14.8007 15.1622 14.6655 15.2994C14.5304 15.4369 14.3699 15.5459 14.1934 15.6203C14.0168 15.6947 13.8275 15.733 13.6364 15.733C13.4452 15.733 13.2559 15.6947 13.0794 15.6203C12.9028 15.5459 12.7424 15.4369 12.6073 15.2994L12.5636 15.2551C12.3922 15.0847 12.1745 14.9704 11.9386 14.9269C11.7027 14.8835 11.4594 14.9128 11.24 15.0112C11.0249 15.1049 10.8414 15.2605 10.7122 15.4587C10.583 15.657 10.5137 15.8894 10.5127 16.1272V16.2529C10.5127 16.6449 10.3595 17.0209 10.0867 17.2981C9.81392 17.5753 9.44395 17.731 9.05818 17.731C8.67241 17.731 8.30244 17.5753 8.02966 17.2981C7.75688 17.0209 7.60364 16.6449 7.60364 16.2529V16.1864C7.59801 15.9417 7.52009 15.7045 7.38001 15.5054C7.23993 15.3064 7.04417 15.1548 6.81818 15.0703C6.59882 14.9719 6.3555 14.9426 6.11957 14.9861C5.88365 15.0295 5.66595 15.1438 5.49455 15.3142L5.45091 15.3586C5.31582 15.496 5.1554 15.605 4.97882 15.6794C4.80224 15.7538 4.61297 15.7921 4.42182 15.7921C4.23067 15.7921 4.04139 15.7538 3.86481 15.6794C3.68824 15.605 3.52782 15.496 3.39273 15.3586C3.25749 15.2213 3.1502 15.0583 3.077 14.8788C3.00381 14.6994 2.96613 14.507 2.96613 14.3128C2.96613 14.1185 3.00381 13.9262 3.077 13.7467C3.1502 13.5673 3.25749 13.4042 3.39273 13.267L3.43636 13.2226C3.60403 13.0484 3.7165 12.8272 3.75928 12.5874C3.80205 12.3477 3.77317 12.1004 3.67636 11.8775C3.58417 11.6589 3.43109 11.4724 3.23597 11.3411C3.04085 11.2098 2.81221 11.1393 2.57818 11.1384H2.45455C2.06878 11.1384 1.69881 10.9826 1.42603 10.7054C1.15325 10.4282 1 10.0522 1 9.66021C1 9.26817 1.15325 8.89219 1.42603 8.61498C1.69881 8.33777 2.06878 8.18203 2.45455 8.18203H2.52C2.76072 8.17631 2.99419 8.09713 3.19004 7.95477C3.38589 7.81242 3.53507 7.61348 3.61818 7.38382C3.71499 7.1609 3.74387 6.91362 3.70109 6.67386C3.65832 6.4341 3.54585 6.21287 3.37818 6.03868L3.33455 5.99434C3.19931 5.85705 3.09202 5.69403 3.01882 5.51458C2.94562 5.33513 2.90795 5.14278 2.90795 4.94853C2.90795 4.75427 2.94562 4.56192 3.01882 4.38247C3.09202 4.20303 3.19931 4.04 3.33455 3.90272C3.46963 3.76528 3.63005 3.65625 3.80663 3.58186C3.98321 3.50748 4.17249 3.46919 4.36364 3.46919C4.55479 3.46919 4.74406 3.50748 4.92064 3.58186C5.09722 3.65625 5.25764 3.76528 5.39273 3.90272L5.43636 3.94706C5.60777 4.11745 5.82547 4.23175 6.06139 4.27522C6.29731 4.31869 6.54064 4.28935 6.76 4.19096H6.81818C7.03329 4.09727 7.21674 3.94171 7.34596 3.74342C7.47518 3.54513 7.54452 3.31277 7.54545 3.07494V2.94929C7.54545 2.55726 7.6987 2.18128 7.97148 1.90407C8.24426 1.62685 8.61423 1.47112 9 1.47112C9.38577 1.47112 9.75574 1.62685 10.0285 1.90407C10.3013 2.18128 10.4545 2.55726 10.4545 2.94929V3.01581C10.4555 3.25364 10.5248 3.486 10.654 3.68429C10.7833 3.88258 10.9667 4.03815 11.1818 4.13183C11.4012 4.23022 11.6445 4.25957 11.8804 4.21609C12.1164 4.17262 12.3341 4.05832 12.5055 3.88794L12.5491 3.84359C12.6842 3.70615 12.8446 3.59713 13.0212 3.52274C13.1978 3.44835 13.387 3.41006 13.5782 3.41006C13.7693 3.41006 13.9586 3.44835 14.1352 3.52274C14.3118 3.59713 14.4722 3.70615 14.6073 3.84359C14.7425 3.98087 14.8498 4.1439 14.923 4.32335C14.9962 4.50279 15.0339 4.69514 15.0339 4.8894C15.0339 5.08365 14.9962 5.276 14.923 5.45545C14.8498 5.6349 14.7425 5.79793 14.6073 5.93521L14.5636 5.97955C14.396 6.15374 14.2835 6.37498 14.2407 6.61473C14.1979 6.85449 14.2268 7.10177 14.3236 7.32469V7.38382C14.4158 7.60242 14.5689 7.78885 14.764 7.92017C14.9591 8.05149 15.1878 8.12196 15.4218 8.12291H15.5455C15.9312 8.12291 16.3012 8.27864 16.574 8.55586C16.8468 8.83307 17 9.20905 17 9.60108C17 9.99312 16.8468 10.3691 16.574 10.6463C16.3012 10.9235 15.9312 11.0793 15.5455 11.0793H15.48C15.246 11.0802 15.0173 11.1507 14.8222 11.282C14.6271 11.4133 14.474 11.5997 14.3818 11.8183V11.8183Z" stroke="white" stroke-linecap="round" stroke-linejoin="round"/>
</svg>
